<?xml version="1.0" encoding="iso-8859-1"?>
<!-- Generator: Adobe Illustrator 19.0.0, SVG Export Plug-In . SVG Version: 6.00 Build 0)  -->
<svg xmlns="http://www.w3.org/2000/svg" xmlns:xlink="http://www.w3.org/1999/xlink" version="1.1" id="Layer_1" x="0px" y="0px" viewBox="0 0 502 502" style="enable-background:new 0 0 502 502;" xml:space="preserve" width="512" height="512">
<g>
	<g>
		<circle style="fill:#FBB03B;" cx="251" cy="251" r="241"/>
		<path d="M251,502c-67.045,0-130.076-26.108-177.483-73.517C26.108,381.076,0,318.045,0,251S26.108,120.924,73.517,73.517    C120.924,26.108,183.955,0,251,0s130.076,26.108,177.483,73.517C475.892,120.924,502,183.955,502,251    s-26.108,130.076-73.517,177.483C381.076,475.892,318.045,502,251,502z M251,20C123.626,20,20,123.626,20,251s103.626,231,231,231    s231-103.626,231-231S378.374,20,251,20z"/>
	</g>
	<g>
		<g>
			<path d="M114.991,196.002c-1.626,0-3.275-0.397-4.802-1.234c-4.842-2.657-6.613-8.735-3.957-13.578     C118.666,158.529,139.743,145,162.614,145c22.475,0,43.35,13.169,55.842,35.227c2.722,4.806,1.032,10.907-3.773,13.629     c-4.801,2.723-10.907,1.034-13.629-3.773C192.158,174.377,177.789,165,162.614,165c-15.458,0-29.98,9.648-38.847,25.811     C121.948,194.126,118.523,196.002,114.991,196.002z"/>
		</g>
		<g>
			<path style="fill:#F2F2F2;" d="M363.25,136.75c1.506,0,2.991,0.142,4.455,0.404C360.223,118.945,347.697,107,333.5,107     c-22.92,0-41.5,31.116-41.5,69.5c0,35.862,16.221,65.372,37.045,69.096c-4.598-11.188-7.295-24.737-7.295-39.346     C321.75,167.866,340.33,136.75,363.25,136.75z"/>
			<g>
				<path style="fill:#50A5DC;" d="M375,176.5c0-14.609-2.697-28.158-7.295-39.346c-1.464-0.262-2.95-0.404-4.455-0.404      c-22.92,0-41.5,31.116-41.5,69.5c0,14.609,2.697,28.158,7.295,39.346c1.464,0.262,2.95,0.404,4.455,0.404      C356.42,246,375,214.884,375,176.5z"/>
				<path d="M376.954,133.353C367.601,110.59,351.355,97,333.5,97c-28.879,0-51.5,34.92-51.5,79.5      c0,41.049,19.045,74.248,45.285,78.94c2.078,0.372,4.169,0.56,6.215,0.56c28.879,0,51.5-34.92,51.5-79.5      C385,161.082,382.218,146.162,376.954,133.353z M302,176.5c0-35.064,16.601-59.5,31.5-59.5c6.356,0,12.825,4.268,18.223,11.669      l0.015,0.019c-23.155,7.873-39.987,39.114-39.987,77.562c0,4.664,0.259,9.28,0.76,13.808l-0.006-0.007      C306.338,209.579,302,194.498,302,176.5z M336.104,235.756c-2.858-9-4.354-19.074-4.354-29.506      c0-33.031,14.733-56.631,28.896-59.256c2.858,9,4.354,19.074,4.354,29.506C365,209.531,350.267,233.131,336.104,235.756z"/>
			</g>
		</g>
	</g>
	<path style="fill:#F2F2F2;" d="M79.682,303c22.28,73.496,90.546,127,171.318,127s149.039-53.504,171.318-127H79.682z"/>
	<g>
		<path d="M339,371h-11c-5.522,0-10-4.478-10-10s4.478-10,10-10h11c5.522,0,10,4.478,10,10S344.522,371,339,371z"/>
	</g>
	<path d="M430.35,297.042c-1.886-2.543-4.865-4.042-8.031-4.042H79.682c-3.166,0-6.146,1.499-8.031,4.042   c-1.887,2.543-2.457,5.829-1.539,8.859c11.518,37.992,35.41,72.138,67.277,96.146C170.344,426.876,209.63,440,251,440   s80.656-13.124,113.611-37.952c31.867-24.009,55.76-58.154,67.277-96.146C432.807,302.871,432.236,299.585,430.35,297.042z    M251,420c-46.159,0-88.528-18.249-119.358-49H289c5.522,0,10-4.478,10-10s-4.478-10-10-10H114.528   c-8.402-11.538-15.429-24.267-20.805-38h314.555C383.013,377.534,321.415,420,251,420z"/>
</g>















</svg>
